<svg xmlns="http://www.w3.org/2000/svg" viewBox="0 0 1676.81 297.54">
  <defs>
    <style>
      .a, .b, .c, .d {
        fill: none;
        stroke: #000;
        stroke-linecap: round;
      }

      .a {
        stroke-miterlimit: 10;
      }

      .a, .b, .c {
        stroke-width: 16px;
      }

      .b, .d {
        stroke-linejoin: round;
      }

      .c {
        stroke-linejoin: bevel;
      }

      .d {
        stroke-width: 20px;
      }
    </style>
  </defs>
  <g>
    <path d="M1608.65,218.62c-1.08,0-2.17,0-3.28-.05-33.75-.88-54.79-13.68-70.33-42.78a8,8,0,1,1,14.11-7.54c13,24.28,28.32,33.58,56.64,34.33,23.63.62,42.69-7.15,50.94-20.8,4.94-8.17,5.25-17.37.85-25.23-6.65-11.9-22.62-18.81-43.8-19-7.5-.06-17.72-.34-19-.42-16.8-1-30.89-6.12-40.74-14.87-9.4-8.35-14.39-19.45-14-31.25.37-12.54,6.94-24.6,18-33.11,11.92-9.15,28.38-14,47.6-14,25.48,0,44.08,6.87,58.52,21.63.61.62,1.21,1.25,1.8,1.9a8,8,0,1,1-11.81,10.79c-.47-.51-.94-1-1.42-1.5C1641.13,65,1627,60,1605.58,60c-33.47,0-49.19,16.35-49.63,31.55-.4,13.6,11.73,28.06,39.72,29.69.88,0,10.66.33,18.23.39,27.1.2,48.1,10.09,57.64,27.15,7.18,12.83,6.76,28.28-1.12,41.32C1665.16,198.77,1648.74,218.62,1608.65,218.62Z"/>
    <circle class="a" cx="366.84" cy="131.28" r="78.04"/>
    <path class="b" d="M1045.44,76.1a78,78,0,1,0,0,110.37"/>
    <path d="M8,297.54a8,8,0,0,1-8-8H0v-.31H0V131.29a86,86,0,0,1,172.08,0c0,50.09-44.38,84.93-85.83,86C65.4,217.87,42.7,208.93,27.1,194a8,8,0,0,1,11.08-11.55c12.43,11.93,31.13,19.36,47.65,18.91s34.23-7.86,47.46-19.84c14.7-13.3,22.79-31.13,22.79-50.2a70,70,0,0,0-140.08,0V289.54A8,8,0,0,1,8,297.54Z"/>
    <path class="a" d="M1162.74,289.11V131.28a78,78,0,0,1,156.08,0c0,46.62-41.78,77.08-78,78-17,.46-38.17-6.51-53.4-21.13"/>
    <path class="a" d="M652.8,206.94V133.5a82.18,82.18,0,0,1,55.93-77.87"/>
    <path class="b" d="M815.49,131.28h62.38c0-43.1-27.4-78-70.5-78A78,78,0,1,0,871.12,176.3"/>
    <path class="b" d="M1439.31,131.28h62.39c0-43.1-27.4-78-70.5-78A78,78,0,1,0,1495,176.3"/>
    <line class="c" x1="463.54" y1="61.75" x2="550.95" y2="61.75"/>
    <circle cx="587.11" cy="200.04" r="13.13"/>
    <path d="M235,213.25a8,8,0,0,1-7.17-4.44,89.27,89.27,0,0,1-9.41-40.14v-8h0V8a8,8,0,0,1,16,0V168.67h0a73.4,73.4,0,0,0,7.73,33A8,8,0,0,1,235,213.25Z"/>
    <path class="b" d="M1107,205.26a81.93,81.93,0,0,1-8.57-36.58V72.84"/>
    <path d="M515.82,213.25a8,8,0,0,1-7.17-4.44,89.27,89.27,0,0,1-9.41-40.14v-8h0V8a8,8,0,0,1,16,0V168.67h0a73.28,73.28,0,0,0,7.74,33,8,8,0,0,1-7.16,11.57Z"/>
    <line class="d" x1="1098.45" y1="45.27" x2="1098.45" y2="45.27"/>
  </g>
</svg>
